<svg xmlns="http://www.w3.org/2000/svg" width="1600" height="700" viewBox="0 0 1600 700">
  <defs>
    <linearGradient id="bg" x1="0" y1="0" x2="1" y2="1">
      <stop offset="0%" stop-color="#0b3a4a"/>
      <stop offset="55%" stop-color="#0f5a72"/>
      <stop offset="100%" stop-color="#158cba"/>
    </linearGradient>
    <radialGradient id="glow" cx="50%" cy="42%" r="50%">
      <stop offset="0%" stop-color="rgba(117,202,235,0.30)"/>
      <stop offset="100%" stop-color="rgba(117,202,235,0)"/>
    </radialGradient>
  </defs>
  <rect width="1600" height="700" fill="url(#bg)"/>
  <rect width="1600" height="700" fill="url(#glow)"/>
  <circle cx="507" cy="577" r="1" fill="rgba(255,255,255,0.52)"/>
<circle cx="1256" cy="505" r="1" fill="rgba(255,255,255,0.66)"/>
<circle cx="980" cy="285" r="1" fill="rgba(255,255,255,0.42)"/>
<circle cx="1488" cy="501" r="2" fill="rgba(255,255,255,0.54)"/>
<circle cx="328" cy="257" r="1" fill="rgba(255,255,255,0.82)"/>
<circle cx="1091" cy="419" r="1" fill="rgba(255,255,255,0.7)"/>
<circle cx="151" cy="183" r="1" fill="rgba(255,255,255,0.48)"/>
<circle cx="83" cy="295" r="2" fill="rgba(255,255,255,0.66)"/>
<circle cx="813" cy="457" r="2" fill="rgba(255,255,255,0.74)"/>
<circle cx="1201" cy="475" r="1" fill="rgba(255,255,255,0.83)"/>
<circle cx="219" cy="56" r="1" fill="rgba(255,255,255,0.6)"/>
<circle cx="548" cy="466" r="1.5" fill="rgba(255,255,255,0.55)"/>
<circle cx="810" cy="607" r="1.5" fill="rgba(255,255,255,0.62)"/>
<circle cx="854" cy="618" r="1" fill="rgba(255,255,255,0.84)"/>
<circle cx="1416" cy="49" r="1.5" fill="rgba(255,255,255,0.89)"/>
<circle cx="1394" cy="187" r="1.5" fill="rgba(255,255,255,0.88)"/>
<circle cx="1191" cy="602" r="1" fill="rgba(255,255,255,0.73)"/>
<circle cx="452" cy="607" r="1.5" fill="rgba(255,255,255,0.47)"/>
<circle cx="149" cy="513" r="2" fill="rgba(255,255,255,0.35)"/>
<circle cx="156" cy="440" r="1" fill="rgba(255,255,255,0.31)"/>
<circle cx="894" cy="445" r="1" fill="rgba(255,255,255,0.33)"/>
<circle cx="1278" cy="66" r="2" fill="rgba(255,255,255,0.73)"/>
<circle cx="697" cy="584" r="1.5" fill="rgba(255,255,255,0.6)"/>
<circle cx="93" cy="337" r="1" fill="rgba(255,255,255,0.35)"/>
<circle cx="1248" cy="568" r="1" fill="rgba(255,255,255,0.87)"/>
<circle cx="855" cy="318" r="1.5" fill="rgba(255,255,255,0.39)"/>
<circle cx="106" cy="367" r="1.5" fill="rgba(255,255,255,0.52)"/>
<circle cx="303" cy="406" r="2" fill="rgba(255,255,255,0.58)"/>
<circle cx="1085" cy="415" r="1" fill="rgba(255,255,255,0.67)"/>
<circle cx="1058" cy="297" r="2" fill="rgba(255,255,255,0.68)"/>
<circle cx="1485" cy="263" r="1.5" fill="rgba(255,255,255,0.56)"/>
<circle cx="548" cy="553" r="1.5" fill="rgba(255,255,255,0.63)"/>
<circle cx="43" cy="445" r="1.5" fill="rgba(255,255,255,0.31)"/>
<circle cx="1281" cy="156" r="1" fill="rgba(255,255,255,0.68)"/>
<circle cx="700" cy="497" r="1.5" fill="rgba(255,255,255,0.71)"/>
<circle cx="742" cy="305" r="2" fill="rgba(255,255,255,0.31)"/>
<circle cx="144" cy="41" r="1.5" fill="rgba(255,255,255,0.45)"/>
<circle cx="954" cy="325" r="1.5" fill="rgba(255,255,255,0.41)"/>
<circle cx="399" cy="340" r="1.5" fill="rgba(255,255,255,0.81)"/>
<circle cx="560" cy="327" r="2" fill="rgba(255,255,255,0.36)"/>
<circle cx="75" cy="602" r="1" fill="rgba(255,255,255,0.49)"/>
<circle cx="475" cy="295" r="1" fill="rgba(255,255,255,0.5)"/>
<circle cx="1408" cy="465" r="1" fill="rgba(255,255,255,0.36)"/>
<circle cx="679" cy="361" r="1" fill="rgba(255,255,255,0.56)"/>
<circle cx="366" cy="101" r="1.5" fill="rgba(255,255,255,0.75)"/>
<circle cx="466" cy="602" r="2" fill="rgba(255,255,255,0.46)"/>
<circle cx="267" cy="54" r="1" fill="rgba(255,255,255,0.49)"/>
<circle cx="1197" cy="207" r="1.5" fill="rgba(255,255,255,0.5)"/>
<circle cx="1334" cy="107" r="1.5" fill="rgba(255,255,255,0.65)"/>
<circle cx="882" cy="318" r="1.5" fill="rgba(255,255,255,0.58)"/>
<circle cx="1318" cy="446" r="1.5" fill="rgba(255,255,255,0.55)"/>
<circle cx="858" cy="56" r="2" fill="rgba(255,255,255,0.39)"/>
<circle cx="29" cy="508" r="2" fill="rgba(255,255,255,0.64)"/>
<circle cx="1488" cy="247" r="1" fill="rgba(255,255,255,0.75)"/>
<circle cx="1562" cy="551" r="1.5" fill="rgba(255,255,255,0.63)"/>
<circle cx="485" cy="89" r="1.5" fill="rgba(255,255,255,0.37)"/>
<circle cx="520" cy="66" r="1" fill="rgba(255,255,255,0.84)"/>
<circle cx="1440" cy="544" r="1" fill="rgba(255,255,255,0.84)"/>
<circle cx="900" cy="610" r="1" fill="rgba(255,255,255,0.31)"/>
<circle cx="1546" cy="143" r="1" fill="rgba(255,255,255,0.6)"/>

  <text x="800" y="300" text-anchor="middle" font-size="130">🌌</text>
  <text x="800" y="430" text-anchor="middle" font-size="58" font-weight="bold" fill="#ffffff" font-family="'Noto Serif SC','PingFang SC','Hiragino Sans GB',serif" letter-spacing="6">天文观测自动化</text>
  <text x="800" y="490" text-anchor="middle" font-size="24" fill="#a8dcf0" font-family="Inter,'Helvetica Neue',Arial,sans-serif" letter-spacing="3">Observation Automation</text>
</svg>