<svg xmlns="http://www.w3.org/2000/svg" width="1600" height="700" viewBox="0 0 1600 700">
  <defs>
    <linearGradient id="bg" x1="0" y1="0" x2="1" y2="1">
      <stop offset="0%" stop-color="#0b3a4a"/>
      <stop offset="55%" stop-color="#0f5a72"/>
      <stop offset="100%" stop-color="#158cba"/>
    </linearGradient>
    <radialGradient id="glow" cx="50%" cy="42%" r="50%">
      <stop offset="0%" stop-color="rgba(117,202,235,0.30)"/>
      <stop offset="100%" stop-color="rgba(117,202,235,0)"/>
    </radialGradient>
  </defs>
  <rect width="1600" height="700" fill="url(#bg)"/>
  <rect width="1600" height="700" fill="url(#glow)"/>
  <circle cx="135" cy="113" r="1" fill="rgba(255,255,255,0.52)"/>
<circle cx="366" cy="335" r="1.5" fill="rgba(255,255,255,0.66)"/>
<circle cx="1262" cy="56" r="1" fill="rgba(255,255,255,0.9)"/>
<circle cx="1327" cy="422" r="1.5" fill="rgba(255,255,255,0.63)"/>
<circle cx="931" cy="534" r="1.5" fill="rgba(255,255,255,0.84)"/>
<circle cx="76" cy="392" r="2" fill="rgba(255,255,255,0.86)"/>
<circle cx="798" cy="453" r="1" fill="rgba(255,255,255,0.64)"/>
<circle cx="503" cy="256" r="1" fill="rgba(255,255,255,0.41)"/>
<circle cx="375" cy="159" r="1.5" fill="rgba(255,255,255,0.9)"/>
<circle cx="1401" cy="593" r="1" fill="rgba(255,255,255,0.9)"/>
<circle cx="932" cy="444" r="1.5" fill="rgba(255,255,255,0.77)"/>
<circle cx="744" cy="390" r="2" fill="rgba(255,255,255,0.4)"/>
<circle cx="1564" cy="429" r="2" fill="rgba(255,255,255,0.69)"/>
<circle cx="531" cy="521" r="1.5" fill="rgba(255,255,255,0.85)"/>
<circle cx="1045" cy="547" r="1.5" fill="rgba(255,255,255,0.7)"/>
<circle cx="951" cy="492" r="1.5" fill="rgba(255,255,255,0.64)"/>
<circle cx="1161" cy="487" r="2" fill="rgba(255,255,255,0.7)"/>
<circle cx="684" cy="190" r="1.5" fill="rgba(255,255,255,0.76)"/>
<circle cx="1002" cy="336" r="1.5" fill="rgba(255,255,255,0.87)"/>
<circle cx="1466" cy="536" r="2" fill="rgba(255,255,255,0.49)"/>
<circle cx="445" cy="520" r="1.5" fill="rgba(255,255,255,0.86)"/>
<circle cx="1296" cy="97" r="1.5" fill="rgba(255,255,255,0.74)"/>
<circle cx="411" cy="128" r="1" fill="rgba(255,255,255,0.64)"/>
<circle cx="120" cy="299" r="1" fill="rgba(255,255,255,0.71)"/>
<circle cx="237" cy="554" r="1" fill="rgba(255,255,255,0.81)"/>
<circle cx="521" cy="235" r="1" fill="rgba(255,255,255,0.55)"/>
<circle cx="1488" cy="52" r="1" fill="rgba(255,255,255,0.52)"/>
<circle cx="372" cy="275" r="1" fill="rgba(255,255,255,0.35)"/>
<circle cx="158" cy="45" r="1" fill="rgba(255,255,255,0.74)"/>
<circle cx="63" cy="402" r="1.5" fill="rgba(255,255,255,0.38)"/>
<circle cx="341" cy="208" r="1" fill="rgba(255,255,255,0.53)"/>
<circle cx="108" cy="273" r="1" fill="rgba(255,255,255,0.88)"/>
<circle cx="28" cy="372" r="1" fill="rgba(255,255,255,0.47)"/>
<circle cx="1020" cy="51" r="1.5" fill="rgba(255,255,255,0.57)"/>
<circle cx="1259" cy="66" r="1.5" fill="rgba(255,255,255,0.75)"/>
<circle cx="1293" cy="177" r="2" fill="rgba(255,255,255,0.88)"/>
<circle cx="211" cy="343" r="1" fill="rgba(255,255,255,0.31)"/>
<circle cx="281" cy="550" r="2" fill="rgba(255,255,255,0.59)"/>
<circle cx="691" cy="167" r="1.5" fill="rgba(255,255,255,0.46)"/>
<circle cx="1261" cy="449" r="1" fill="rgba(255,255,255,0.72)"/>
<circle cx="307" cy="78" r="1.5" fill="rgba(255,255,255,0.32)"/>
<circle cx="350" cy="194" r="1" fill="rgba(255,255,255,0.57)"/>
<circle cx="494" cy="540" r="1" fill="rgba(255,255,255,0.9)"/>
<circle cx="496" cy="475" r="1" fill="rgba(255,255,255,0.45)"/>
<circle cx="1230" cy="253" r="1.5" fill="rgba(255,255,255,0.45)"/>
<circle cx="886" cy="305" r="1" fill="rgba(255,255,255,0.39)"/>
<circle cx="807" cy="438" r="1" fill="rgba(255,255,255,0.37)"/>
<circle cx="1502" cy="109" r="1" fill="rgba(255,255,255,0.36)"/>
<circle cx="60" cy="206" r="1" fill="rgba(255,255,255,0.36)"/>
<circle cx="70" cy="553" r="2" fill="rgba(255,255,255,0.57)"/>
<circle cx="1116" cy="409" r="1" fill="rgba(255,255,255,0.71)"/>
<circle cx="1577" cy="235" r="2" fill="rgba(255,255,255,0.56)"/>
<circle cx="63" cy="615" r="1" fill="rgba(255,255,255,0.83)"/>
<circle cx="1095" cy="615" r="1" fill="rgba(255,255,255,0.85)"/>
<circle cx="1378" cy="511" r="1.5" fill="rgba(255,255,255,0.31)"/>
<circle cx="262" cy="395" r="1.5" fill="rgba(255,255,255,0.71)"/>
<circle cx="782" cy="335" r="1" fill="rgba(255,255,255,0.82)"/>
<circle cx="864" cy="123" r="1" fill="rgba(255,255,255,0.48)"/>
<circle cx="1397" cy="36" r="2" fill="rgba(255,255,255,0.34)"/>
<circle cx="1325" cy="517" r="2" fill="rgba(255,255,255,0.42)"/>

  <text x="800" y="300" text-anchor="middle" font-size="130">🧠</text>
  <text x="800" y="430" text-anchor="middle" font-size="58" font-weight="bold" fill="#ffffff" font-family="'Noto Serif SC','PingFang SC','Hiragino Sans GB',serif" letter-spacing="6">智能控制算法</text>
  <text x="800" y="490" text-anchor="middle" font-size="24" fill="#a8dcf0" font-family="Inter,'Helvetica Neue',Arial,sans-serif" letter-spacing="3">Intelligent Control Algorithms</text>
</svg>